<svg xmlns="http://www.w3.org/2000/svg" width="500" height="500">
<path style="fill:#ccfddb; stroke:none;" d="M0 0L0 500L83 500L82.6667 411.667L82.6667 235.667L82.6667 79L83 1L82 0L0 0z"/>
<path style="fill:#bdebe4; stroke:none;" d="M80 0L81 1L80 0M82 0L82.3333 88.3333L82.3333 264.333L82.3333 421L82 499L83 500L220 500L220 357L221 357L221 500L222 500L222 404L223 355C206.466 361.875 191.096 365.581 173 363.83C162.872 362.85 152.984 359.387 144 354.742C81.6492 322.5 82.2724 231.117 145 199.753C154.896 194.805 165.853 191.23 177 191L177 145C163.721 145 148.298 143.709 138.927 155.174C134.35 160.774 133.977 169.182 129 174C129.555 166.976 130.138 148.45 135.514 143.603C140.126 139.445 155.062 141.817 160.999 142.036C185.208 142.929 214.523 138.411 238 144L222 142L222 0L221 0L221 142L220 142L220 0L82 0z"/>
<path style="fill:#add7ef; stroke:none;" d="M220 0L220 142L221 142L221 43C221 30.7942 224.707 11.2179 220 0M222 0L222 142L238 142L243 174C238.772 171.416 238.667 166.282 236.676 162C233.587 155.359 228.861 150.601 222 148L222 352C234.136 348.133 246.13 336.826 255 327.999C272.722 310.363 287.176 290.983 300.692 270C305.832 262.021 312.632 253.885 316 245L287 245C283.803 245 278.429 244.003 275.699 246.028C272.581 248.341 271.412 254.552 269.989 258C266.304 266.931 256.646 283.105 273 284L273 287L245 287L245 284C258.476 283.299 262.128 270.599 266.576 260L287.424 210C290.948 201.603 296.833 192.015 298.286 183C300.214 171.04 288.646 161.464 278 161L278 158C285.669 158 301.13 155.03 307.775 159.028C312.186 161.68 314.117 170.463 315.989 175C321.95 189.445 329.706 203.979 334 219L356 205L354.667 183.667L354.667 142.333L354.667 49L355 1L354 0L222 0z"/>
<path style="fill:#9fc6f8; stroke:none;" d="M352 0L353 1L352 0M354 0C358.262 34.8334 354.333 72.5494 354.333 107.667C354.333 138.565 358.262 172.425 354 203C359.646 204.223 365.247 201.858 371 202.043C382.435 202.412 393.07 207.935 400.96 216.015C421.572 237.122 413.643 271.368 388 284.19C376.571 289.904 365.134 287.879 353 287L352 288C356.419 324.123 352.333 363.249 352.333 399.667C352.333 431.856 356.44 467.148 352 499L353 500L500 500L500 0L354 0z"/>
<path style="fill:#bdebe4; stroke:none;" d="M81 1L80.3333 43L80.3333 128.333L80.3333 376.333L80.3333 457L80 499L81 499C84.0254 487.864 81.6667 473.234 81.6667 461.667L81.6667 383L81.6667 129.667L81.6667 37.6667C81.6667 28.2284 85.2847 9.23706 81 1z"/>
<path style="fill:#ccfddb; stroke:none;" d="M84 1L85 2L84 1z"/>
<path style="fill:#9fc6f8; stroke:none;" d="M353 1C349.01 17.0482 352.333 37.7652 352.333 54.3333L352.333 154.333C352.333 170.818 354.275 188.681 352 205L353 205L353.667 157L353.667 54.3333L353.667 17L353 1z"/>
<path style="fill:#ccfddb; stroke:none;" d="M84 3L85 4L84 3M84 5L85 6L84 5M84 7L85 8L84 7M84 9L85 10L84 9M84 11L85 12L84 11M84 13L85 14L84 13M84 15L85 16L84 15M84 17L85 18L84 17M84 19L85 20L84 19M84 21L85 22L84 21M84 23L85 24L84 23M84 25L85 26L84 25M84 27L85 28L84 27M84 29L85 30L84 29M84 31L85 32L84 31M84 33L85 34L84 33M84 35L85 36L84 35M84 37L85 38L84 37M84 39L85 40L84 39M84 41L85 42L84 41M84 43L85 44L84 43M84 45L85 46L84 45M84 47L85 48L84 47M84 49L85 50L84 49M84 51L85 52L84 51M84 53L85 54L84 53M84 55L85 56L84 55M84 57L85 58L84 57M84 59L85 60L84 59M84 61L85 62L84 61M84 63L85 64L84 63M84 65L85 66L84 65M84 67L85 68L84 67M84 69L85 70L84 69M84 71L85 72L84 71M84 73L85 74L84 73M84 75L85 76L84 75M84 77L85 78L84 77M84 79L85 80L84 79M84 81L85 82L84 81M84 83L85 84L84 83M84 85L85 86L84 85M84 87L85 88L84 87M84 89L85 90L84 89M84 91L85 92L84 91M84 93L85 94L84 93M84 95L85 96L84 95M84 97L85 98L84 97M84 99L85 100L84 99M84 101L85 102L84 101M84 103L85 104L84 103M84 105L85 106L84 105M84 107L85 108L84 107M84 109L85 110L84 109M84 111L85 112L84 111M84 113L85 114L84 113M84 115L85 116L84 115M84 117L85 118L84 117M84 119L85 120L84 119M84 121L85 122L84 121M84 123L85 124L84 123M84 125L85 126L84 125M84 127L85 128L84 127M84 129L85 130L84 129M84 131L85 132L84 131M84 133L85 134L84 133M84 135L85 136L84 135M84 137L85 138L84 137M84 139L85 140L84 139M84 141L85 142L84 141M135 142L135 143L166 143L135 142M167 142L168 143L167 142M84 143L85 144L84 143z"/>
<path style="fill:#fdfeff; stroke:none;" d="M134 143L129 173C134.153 169.405 134.966 160.071 139.329 155.04C149.104 143.767 163.523 145 177 145L177 191C167.111 191.425 157.086 194.168 148 198.015C75.0727 228.884 84.0498 341.073 160 361.116C215.417 375.74 258.26 334.771 288.14 293C296.262 281.646 303.579 269.779 311.053 258C313.402 254.299 316.596 247.06 321.09 245.662C326.534 243.968 328.509 251.364 330.011 255C334.658 266.251 345.255 284.817 325 285L325 287C345.466 287 373.85 293.064 392 281.931C423.771 262.444 416.156 212.906 380 203.76C360.737 198.887 347.902 208.801 334 220C331.38 205.256 322.3 189.777 316.421 176C314.554 171.625 312.686 162.742 308.582 160.028C302.251 155.84 285.514 159 278 159L278 161C299.63 161.461 299.119 182.282 292.85 197C282.216 221.967 274.509 252.164 259.867 274.999C256.245 280.648 249.442 281.954 246 287L273 287C270.451 283.602 265.222 283.353 263.618 278.956C261.445 272.999 271.311 248.06 277.133 245.603C287.247 241.336 306.01 245 317 245C295.731 274.254 279.235 306.197 252 330.83C238.799 342.77 223.536 354.86 206 359.37C193.377 362.617 180.814 362.98 168 360.75C157.893 358.991 148.744 355.104 140 349.796C83.9317 315.755 87.6717 234.286 144 202.862C153.733 197.432 165.823 193.481 177 193C177 210.769 181.321 234.91 176.566 251.995C175.153 257.074 170.722 258.572 166 259L166 261L206 261L206 259C191.353 258.238 195 242.777 195 232L195 145C215.15 145 237.788 147.826 240 173L242 173C241.737 166.884 241.246 147.985 236.262 144.028C231.32 140.105 215.197 143 209 143L134 143z"/>
<path style="fill:#ccfddb; stroke:none;" d="M237 144L238 145L237 144M84 145L85 146L84 145M156.667 145.333L157.333 145.667L156.667 145.333z"/>
<path style="fill:#bdebe4; stroke:none;" d="M195 145L195 232C195 242.821 191.329 258.318 206 259L206 261L166 261L166 259C170.017 258.669 174.356 258.148 176.106 253.942C178.348 248.558 177 240.729 177 235L177 193C146.965 196.816 120.576 213.039 107.32 241C82.9677 292.367 117.993 357.845 176 361.91C192.929 363.097 207.548 359.425 223 353C218.054 332.225 222 306.357 222 285L222 147L221 147L221 353C216.736 338.575 220 319.049 220 304L220 200L220 161C220 157.385 221.454 149.622 218.397 146.988C213.481 142.754 201.044 145 195 145z"/>
<path style="fill:#ccfddb; stroke:none;" d="M214.667 145.333L215.333 145.667L214.667 145.333M133.333 146.667L133.667 147.333L133.333 146.667M152 146L153 147L152 146M219 146L220 147L219 146M84 147L85 148L84 147M149 147L150 148L149 147z"/>
<path style="fill:#add7ef; stroke:none;" d="M220 147L220 353L221 353L221 208L221 167L220 147z"/>
<path style="fill:#ccfddb; stroke:none;" d="M222 147L223 148L222 147z"/>
<path style="fill:#bdebe4; stroke:none;" d="M238.333 147.667L238.667 148.333L238.333 147.667z"/>
<path style="fill:#ccfddb; stroke:none;" d="M224 148L225 149L224 148M84 149L85 150L84 149M145 149L146 150L145 149z"/>
<path style="fill:#bdebe4; stroke:none;" d="M225 149L226 150L225 149z"/>
<path style="fill:#ccfddb; stroke:none;" d="M238 149L239 150L238 149z"/>
<path style="fill:#bdebe4; stroke:none;" d="M227 150L228 151L227 150z"/>
<path style="fill:#ccfddb; stroke:none;" d="M84 151L85 152L84 151M142 151L143 152L142 151z"/>
<path style="fill:#bdebe4; stroke:none;" d="M228 151L229 152L228 151z"/>
<path style="fill:#ccfddb; stroke:none;" d="M132.333 152.667L132.667 153.333L132.333 152.667M141 152L142 153L141 152M230 152L231 153L230 152M84 153L85 154L84 153M231 153L232 154L231 153z"/>
<path style="fill:#bdebe4; stroke:none;" d="M239.333 153.667L239.667 154.333L239.333 153.667z"/>
<path style="fill:#ccfddb; stroke:none;" d="M139 154L140 155L139 154M84 155L85 156L84 155M138 155L139 156L138 155M239 155L240 156L239 155z"/>
<path style="fill:#bdebe4; stroke:none;" d="M233 156L234 157L233 156z"/>
<path style="fill:#ccfddb; stroke:none;" d="M84 157L85 158L84 157z"/>
<path style="fill:#bdebe4; stroke:none;" d="M234 157L235 158L234 157z"/>
<path style="fill:#ccfddb; stroke:none;" d="M131 158L132 159L131 158M136 158L137 159L136 158z"/>
<path style="fill:#bdebe4; stroke:none;" d="M278 158L278 159L309 159L278 158z"/>
<path style="fill:#ccfddb; stroke:none;" d="M84 159L85 160L84 159z"/>
<path style="fill:#bdebe4; stroke:none;" d="M235 159L236 160L235 159M240.333 159.667L240.667 160.333L240.333 159.667M309 159L310 160L309 159z"/>
<path style="fill:#ccfddb; stroke:none;" d="M135 160L136 161L135 160M84 161L85 162L84 161z"/>
<path style="fill:#bdebe4; stroke:none;" d="M236 161L237 162L236 161z"/>
<path style="fill:#ccfddb; stroke:none;" d="M240 161L241 162L240 161z"/>
<path style="fill:#bdebe4; stroke:none;" d="M283.667 161.333L284.333 161.667L283.667 161.333M310 161L311 162L310 161z"/>
<path style="fill:#ccfddb; stroke:none;" d="M134 162L135 163L134 162z"/>
<path style="fill:#bdebe4; stroke:none;" d="M287 162L288 163L287 162z"/>
<path style="fill:#ccfddb; stroke:none;" d="M84 163L85 164L84 163M130.333 163.667L130.667 164.333L130.333 163.667z"/>
<path style="fill:#bdebe4; stroke:none;" d="M237 163L238 164L237 163M289 163L290 164L289 163z"/>
<path style="fill:#ccfddb; stroke:none;" d="M133 164L134 165L133 164z"/>
<path style="fill:#bdebe4; stroke:none;" d="M241 164L241 167L242 167L241 164M290 164L291 165L290 164M311 164L312 165L311 164z"/>
<path style="fill:#ccfddb; stroke:none;" d="M84 165L85 166L84 165M238 165L239 166L238 165z"/>
<path style="fill:#bdebe4; stroke:none;" d="M291 165L292 166L291 165M238 166L239 167L238 166M292 166L293 167L292 166M312 166L313 167L312 166z"/>
<path style="fill:#ccfddb; stroke:none;" d="M84 167L85 168L84 167M132 167L133 168L132 167M241 167L242 168L241 167M239 168L240 169L239 168M84 169L85 170L84 169M129.333 169.667L129.667 170.333L129.333 169.667z"/>
<path style="fill:#bdebe4; stroke:none;" d="M239.333 169.667L239.667 170.333L239.333 169.667z"/>
<path style="fill:#ccfddb; stroke:none;" d="M294 169L295 170L294 169M313 169L314 170L313 169z"/>
<path style="fill:#bdebe4; stroke:none;" d="M242.333 170.667L242.667 171.333L242.333 170.667z"/>
<path style="fill:#ccfddb; stroke:none;" d="M84 171L85 172L84 171M131.333 171.667L131.667 172.333L131.333 171.667z"/>
<path style="fill:#bdebe4; stroke:none;" d="M314 171L315 172L314 171z"/>
<path style="fill:#ccfddb; stroke:none;" d="M242 172L243 173L242 172z"/>
<path style="fill:#bdebe4; stroke:none;" d="M295 172L296 173L295 172z"/>
<path style="fill:#ccfddb; stroke:none;" d="M84 173L85 174L84 173M129.667 173.333L130.333 173.667L129.667 173.333z"/>
<path style="fill:#bdebe4; stroke:none;" d="M240 173L240 174L243 174L240 173M315 173L316 174L315 173M296 174L297 175L296 174z"/>
<path style="fill:#ccfddb; stroke:none;" d="M84 175L85 176L84 175z"/>
<path style="fill:#bdebe4; stroke:none;" d="M316 176L317 177L316 176z"/>
<path style="fill:#ccfddb; stroke:none;" d="M84 177L85 178L84 177z"/>
<path style="fill:#bdebe4; stroke:none;" d="M297 177L298 178L297 177M317 178L318 179L317 178z"/>
<path style="fill:#ccfddb; stroke:none;" d="M84 179L85 180L84 179z"/>
<path style="fill:#bdebe4; stroke:none;" d="M298 179L299 180L298 179z"/>
<path style="fill:#ccfddb; stroke:none;" d="M84 181L85 182L84 181M84 183L85 184L84 183z"/>
<path style="fill:#bdebe4; stroke:none;" d="M298 183L299 184L298 183M319 183L320 184L319 183z"/>
<path style="fill:#ccfddb; stroke:none;" d="M84 185L85 186L84 185z"/>
<path style="fill:#bdebe4; stroke:none;" d="M297 185L298 186L297 185z"/>
<path style="fill:#add7ef; stroke:none;" d="M300 185L277 242L307 242C310.656 242 316.468 243.063 319.424 240.397C323.635 236.596 319.684 230.108 317.989 226C312.675 213.12 308.403 196.103 300 185z"/>
<path style="fill:#bdebe4; stroke:none;" d="M320 185L321 186L320 185M301 186L302 187L301 186z"/>
<path style="fill:#ccfddb; stroke:none;" d="M84 187L85 188L84 187z"/>
<path style="fill:#bdebe4; stroke:none;" d="M299 187L300 188L299 187M296 188L297 189L296 188z"/>
<path style="fill:#ccfddb; stroke:none;" d="M302 188L303 189L302 188M321 188L322 189L321 188M84 189L85 190L84 189z"/>
<path style="fill:#bdebe4; stroke:none;" d="M298 189L299 190L298 189M302 189L303 190L302 189M295 190L296 191L295 190M322 190L323 191L322 190z"/>
<path style="fill:#ccfddb; stroke:none;" d="M84 191L85 192L84 191M170.667 191.333L171.333 191.667L170.667 191.333M297 191L298 192L297 191z"/>
<path style="fill:#bdebe4; stroke:none;" d="M303 191L304 192L303 191z"/>
<path style="fill:#ccfddb; stroke:none;" d="M164.667 192.333L165.333 192.667L164.667 192.333z"/>
<path style="fill:#bdebe4; stroke:none;" d="M323 192L324 193L323 192z"/>
<path style="fill:#ccfddb; stroke:none;" d="M84 193L85 194L84 193M161 193L162 194L161 193M171 193L171 194L174 194L171 193M294 193L295 194L294 193z"/>
<path style="fill:#bdebe4; stroke:none;" d="M304 193L305 194L304 193z"/>
<path style="fill:#ccfddb; stroke:none;" d="M157 194L158 195L157 194M166.667 194.333L167.333 194.667L166.667 194.333z"/>
<path style="fill:#bdebe4; stroke:none;" d="M296 194L297 195L296 194z"/>
<path style="fill:#ccfddb; stroke:none;" d="M84 195L85 196L84 195M154 195L155 196L154 195M162 195L163 196L162 195z"/>
<path style="fill:#bdebe4; stroke:none;" d="M293 195L294 196L293 195M324 195L325 196L324 195z"/>
<path style="fill:#ccfddb; stroke:none;" d="M151 196L152 197L151 196M159 196L160 197L159 196z"/>
<path style="fill:#bdebe4; stroke:none;" d="M295 196L296 197L295 196M305 196L306 197L305 196z"/>
<path style="fill:#ccfddb; stroke:none;" d="M84 197L85 198L84 197M149 197L150 198L149 197z"/>
<path style="fill:#bdebe4; stroke:none;" d="M292 197L293 198L292 197M325 197L326 198L325 197z"/>
<path style="fill:#ccfddb; stroke:none;" d="M153 198L154 199L153 198z"/>
<path style="fill:#bdebe4; stroke:none;" d="M306 198L307 199L306 198z"/>
<path style="fill:#ccfddb; stroke:none;" d="M84 199L85 200L84 199M150 199L151 200L150 199z"/>
<path style="fill:#bdebe4; stroke:none;" d="M294 199L295 200L294 199z"/>
<path style="fill:#ccfddb; stroke:none;" d="M148 200L149 201L148 200z"/>
<path style="fill:#bdebe4; stroke:none;" d="M291 200L292 201L291 200z"/>
<path style="fill:#ccfddb; stroke:none;" d="M307 200L308 201L307 200M326 200L327 201L326 200M84 201L85 202L84 201M141 201L142 202L141 201M146 201L147 202L146 201z"/>
<path style="fill:#bdebe4; stroke:none;" d="M293 201L294 202L293 201z"/>
<path style="fill:#ccfddb; stroke:none;" d="M139 202L140 203L139 202M144 202L145 203L144 202z"/>
<path style="fill:#bdebe4; stroke:none;" d="M290 202L291 203L290 202M327 202L328 203L327 202z"/>
<path style="fill:#add7ef; stroke:none;" d="M364.667 202.333L365.333 202.667L364.667 202.333z"/>
<path style="fill:#bdebe4; stroke:none;" d="M366 202L366 203L373 203L366 202z"/>
<path style="fill:#add7ef; stroke:none;" d="M373 202L373 203L376 203L373 202z"/>
<path style="fill:#ccfddb; stroke:none;" d="M84 203L85 204L84 203M137 203L138 204L137 203M142 203L143 204L142 203M292 203L293 204L292 203z"/>
<path style="fill:#bdebe4; stroke:none;" d="M308 203L309 204L308 203z"/>
<path style="fill:#add7ef; stroke:none;" d="M358.667 203.333L359.333 203.667L358.667 203.333z"/>
<path style="fill:#bdebe4; stroke:none;" d="M360 203L361 204L360 203M379 203L380 204L379 203z"/>
<path style="fill:#add7ef; stroke:none;" d="M380 203L381 204L380 203z"/>
<path style="fill:#bdebe4; stroke:none;" d="M328 204L329 205L328 204z"/>
<path style="fill:#9fc6f8; stroke:none;" d="M354 204L355 205L354 204z"/>
<path style="fill:#bdebe4; stroke:none;" d="M356 204L357 205L356 204z"/>
<path style="fill:#ccfddb; stroke:none;" d="M367 204L368 205L367 204z"/>
<path style="fill:#bdebe4; stroke:none;" d="M368 204L368 205L372 205L368 204z"/>
<path style="fill:#ccfddb; stroke:none;" d="M372 204L373 205L372 204z"/>
<path style="fill:#bdebe4; stroke:none;" d="M382 204L383 205L382 204z"/>
<path style="fill:#add7ef; stroke:none;" d="M383 204L384 205L383 204z"/>
<path style="fill:#ccfddb; stroke:none;" d="M84 205L85 206L84 205M134 205L135 206L134 205M139 205L140 206L139 205M289 205L290 206L289 205z"/>
<path style="fill:#bdebe4; stroke:none;" d="M309 205L310 206L309 205M353 205L354 206L353 205M360.667 205.333L361.333 205.667L360.667 205.333z"/>
<path style="fill:#add7ef; stroke:none;" d="M362.667 205.333L363.333 205.667L362.667 205.333z"/>
<path style="fill:#9fc6f8; stroke:none;" d="M364 205.439C360.177 206.041 354.576 206.782 352.796 210.782C350.577 215.768 352.333 224.904 352.333 230.333C352.333 248.38 349.482 287.624 378 284.446C428.392 278.831 414.062 197.556 364 205.439z"/>
<path style="fill:#add7ef; stroke:none;" d="M377.667 205.333L378.333 205.667L377.667 205.333z"/>
<path style="fill:#bdebe4; stroke:none;" d="M379 205L380 206L379 205M385 205L386 206L385 205z"/>
<path style="fill:#add7ef; stroke:none;" d="M386 205L387 206L386 205z"/>
<path style="fill:#ccfddb; stroke:none;" d="M133 206L134 207L133 206M137 206L138 207L137 206z"/>
<path style="fill:#bdebe4; stroke:none;" d="M291 206L292 207L291 206M351 206L352 207L351 206M357 206L358 207L357 206z"/>
<path style="fill:#add7ef; stroke:none;" d="M358 206L359 207L358 206M381 206L382 207L381 206z"/>
<path style="fill:#bdebe4; stroke:none;" d="M382 206L383 207L382 206z"/>
<path style="fill:#add7ef; stroke:none;" d="M388 206L389 207L388 206z"/>
<path style="fill:#ccfddb; stroke:none;" d="M84 207L85 208L84 207z"/>
<path style="fill:#bdebe4; stroke:none;" d="M288 207L289 208L288 207M329 207L330 208L329 207M349 207L350 208L349 207z"/>
<path style="fill:#ccfddb; stroke:none;" d="M354 207L355 208L354 207z"/>
<path style="fill:#add7ef; stroke:none;" d="M355 207L356 208L355 207M384 207L385 208L384 207z"/>
<path style="fill:#ccfddb; stroke:none;" d="M385 207L386 208L385 207M389 207L390 208L389 207z"/>
<path style="fill:#add7ef; stroke:none;" d="M390 207L391 208L390 207z"/>
<path style="fill:#ccfddb; stroke:none;" d="M130 208L131 209L130 208z"/>
<path style="fill:#bdebe4; stroke:none;" d="M290 208L291 209L290 208M310 208L311 209L310 208M347 208L348 209L347 208M352 208L353 209L352 208z"/>
<path style="fill:#add7ef; stroke:none;" d="M353 208L354 209L353 208M386 208L387 209L386 208z"/>
<path style="fill:#bdebe4; stroke:none;" d="M387 208L388 209L387 208M391 208L392 209L391 208z"/>
<path style="fill:#ccfddb; stroke:none;" d="M84 209L85 210L84 209M129 209L130 210L129 209M133 209L134 210L133 209z"/>
<path style="fill:#bdebe4; stroke:none;" d="M287 209L288 210L287 209M330 209L331 210L330 209M350 209L351 210L350 209z"/>
<path style="fill:#add7ef; stroke:none;" d="M352 260L353 260C351.09 244.387 350.828 224.579 353 209C347.344 210.806 337.702 216.342 336.954 223C336.56 226.505 339.315 230.837 340.603 234C344.125 242.643 347.387 251.893 352 260M354 209C350.714 222.216 350.38 248.872 354 262L355 262L354.667 224.333L354 209M388 209L389 210L388 209z"/>
<path style="fill:#ccfddb; stroke:none;" d="M389 209L390 210L389 209z"/>
<path style="fill:#bdebe4; stroke:none;" d="M393 209L394 210L393 209M311 210L312 211L311 210z"/>
<path style="fill:#add7ef; stroke:none;" d="M390 210L391 211L390 210z"/>
<path style="fill:#ccfddb; stroke:none;" d="M84 211L85 212L84 211M130 211L131 212L130 211z"/>
<path style="fill:#bdebe4; stroke:none;" d="M289 211L290 212L289 211M343 211L344 212L343 211M347 211L348 212L347 211M392 211L393 212L392 211z"/>
<path style="fill:#add7ef; stroke:none;" d="M396 211L397 212L396 211z"/>
<path style="fill:#ccfddb; stroke:none;" d="M125 212L126 213L125 212M129 212L130 213L129 212z"/>
<path style="fill:#bdebe4; stroke:none;" d="M286 212L287 213L286 212z"/>
<path style="fill:#ccfddb; stroke:none;" d="M312 212L313 213L312 212M331 212L332 213L331 212z"/>
<path style="fill:#add7ef; stroke:none;" d="M393 212L394 213L393 212z"/>
<path style="fill:#bdebe4; stroke:none;" d="M397 212L398 213L397 212z"/>
<path style="fill:#ccfddb; stroke:none;" d="M84 213L85 214L84 213M124 213L125 214L124 213z"/>
<path style="fill:#bdebe4; stroke:none;" d="M288 213L289 214L288 213M344 213L345 214L344 213M395 213L396 214L395 213M398 213L399 214L398 213z"/>
<path style="fill:#ccfddb; stroke:none;" d="M123 214L124 215L123 214z"/>
<path style="fill:#bdebe4; stroke:none;" d="M285 214L286 215L285 214M332 214L333 215L332 214M343 214L344 215L343 214M396 214L397 215L396 214M399 214L400 215L399 214z"/>
<path style="fill:#ccfddb; stroke:none;" d="M84 215L85 216L84 215M122 215L123 216L122 215M287 215L288 216L287 215z"/>
<path style="fill:#bdebe4; stroke:none;" d="M313 215L314 216L313 215M397 215L398 216L397 215z"/>
<path style="fill:#ccfddb; stroke:none;" d="M400 215L401 216L400 215z"/>
<path style="fill:#bdebe4; stroke:none;" d="M333 216L334 217L333 216z"/>
<path style="fill:#add7ef; stroke:none;" d="M398 216L399 217L398 216z"/>
<path style="fill:#bdebe4; stroke:none;" d="M401 216L402 217L401 216z"/>
<path style="fill:#ccfddb; stroke:none;" d="M84 217L85 218L84 217M284 217L285 218L284 217z"/>
<path style="fill:#bdebe4; stroke:none;" d="M314 217L315 218L314 217M399 217L400 218L399 217M402 217L403 218L402 217M286 218L287 219L286 218M336 218L337 219L336 218M400 218L401 219L400 218z"/>
<path style="fill:#add7ef; stroke:none;" d="M403 218L404 219L403 218z"/>
<path style="fill:#ccfddb; stroke:none;" d="M84 219L85 220L84 219z"/>
<path style="fill:#bdebe4; stroke:none;" d="M283 219L284 220L283 219M334.667 219.333L335.333 219.667L334.667 219.333M338 219L339 220L338 219z"/>
<path style="fill:#add7ef; stroke:none;" d="M404 219L405 220L404 219z"/>
<path style="fill:#bdebe4; stroke:none;" d="M285 220L286 221L285 220M315 220L316 221L315 220M337 220L338 221L337 220z"/>
<path style="fill:#ccfddb; stroke:none;" d="M84 221L85 222L84 221M120 221L121 222L120 221z"/>
<path style="fill:#bdebe4; stroke:none;" d="M282 221L283 222L282 221z"/>
<path style="fill:#add7ef; stroke:none;" d="M402 221L403 222L402 221z"/>
<path style="fill:#bdebe4; stroke:none;" d="M405 221L406 222L405 221z"/>
<path style="fill:#ccfddb; stroke:none;" d="M116 222L117 223L116 222M119 222L120 223L119 222z"/>
<path style="fill:#bdebe4; stroke:none;" d="M316 222L317 223L316 222M403 222L404 223L403 222z"/>
<path style="fill:#add7ef; stroke:none;" d="M406 222L407 223L406 222z"/>
<path style="fill:#ccfddb; stroke:none;" d="M84 223L85 224L84 223M115 223L116 224L115 223M118 223L119 224L118 223z"/>
<path style="fill:#bdebe4; stroke:none;" d="M284 223L285 224L284 223M281 224L282 225L281 224z"/>
<path style="fill:#ccfddb; stroke:none;" d="M317 224L318 225L317 224z"/>
<path style="fill:#add7ef; stroke:none;" d="M404 224L405 225L404 224M407 224L408 225L407 224z"/>
<path style="fill:#ccfddb; stroke:none;" d="M84 225L85 226L84 225z"/>
<path style="fill:#bdebe4; stroke:none;" d="M283 225L284 226L283 225M405 225L406 226L405 225z"/>
<path style="fill:#ccfddb; stroke:none;" d="M113 226L114 227L113 226z"/>
<path style="fill:#bdebe4; stroke:none;" d="M280 226L281 227L280 226M337 226L338 227L337 226z"/>
<path style="fill:#add7ef; stroke:none;" d="M408 226L409 227L408 226z"/>
<path style="fill:#ccfddb; stroke:none;" d="M84 227L85 228L84 227M112 227L113 228L112 227M115 227L116 228L115 227M282 227L283 228L282 227z"/>
<path style="fill:#bdebe4; stroke:none;" d="M318 227L319 228L318 227M406 227L407 228L406 227M279 228L280 229L279 228M338 228L339 229L338 228z"/>
<path style="fill:#add7ef; stroke:none;" d="M406 228L407 229L406 228M409 228L410 229L409 228z"/>
<path style="fill:#ccfddb; stroke:none;" d="M84 229L85 230L84 229M279 229L280 230L279 229z"/>
<path style="fill:#bdebe4; stroke:none;" d="M319 229L320 230L319 229M407 229L408 230L407 229M409 229L410 230L409 229z"/>
<path style="fill:#ccfddb; stroke:none;" d="M110 230L111 231L110 230M113 230L114 231L113 230z"/>
<path style="fill:#bdebe4; stroke:none;" d="M281 230L282 231L281 230z"/>
<path style="fill:#add7ef; stroke:none;" d="M407 230L408 231L407 230z"/>
<path style="fill:#ccfddb; stroke:none;" d="M84 231L85 232L84 231M112 231L113 232L112 231z"/>
<path style="fill:#bdebe4; stroke:none;" d="M278 231L279 232L278 231z"/>
<path style="fill:#ccfddb; stroke:none;" d="M339 231L340 232L339 231z"/>
<path style="fill:#bdebe4; stroke:none;" d="M410 231L411 232L410 231z"/>
<path style="fill:#ccfddb; stroke:none;" d="M109 232L110 233L109 232z"/>
<path style="fill:#bdebe4; stroke:none;" d="M280 232L281 233L280 232M320 232L321 233L320 232M408 232L409 233L408 232z"/>
<path style="fill:#ccfddb; stroke:none;" d="M84 233L85 234L84 233M108 233L109 234L108 233M111 233L112 234L111 233z"/>
<path style="fill:#bdebe4; stroke:none;" d="M277 233L278 234L277 233M340 233L341 234L340 233z"/>
<path style="fill:#add7ef; stroke:none;" d="M408 233L409 234L408 233z"/>
<path style="fill:#bdebe4; stroke:none;" d="M321 234L322 235L321 234z"/>
<path style="fill:#add7ef; stroke:none;" d="M411 234L412 235L411 234z"/>
<path style="fill:#ccfddb; stroke:none;" d="M84 235L85 236L84 235M107 235L108 236L107 235M110 235L111 236L110 235z"/>
<path style="fill:#bdebe4; stroke:none;" d="M279 235L280 236L279 235z"/>
<path style="fill:#ccfddb; stroke:none;" d="M409 235L410 236L409 235z"/>
<path style="fill:#bdebe4; stroke:none;" d="M411 235L412 236L411 235z"/>
<path style="fill:#ccfddb; stroke:none;" d="M109 236L110 237L109 236z"/>
<path style="fill:#bdebe4; stroke:none;" d="M276 236L277 237L276 236M409 236L410 237L409 236z"/>
<path style="fill:#ccfddb; stroke:none;" d="M84 237L85 238L84 237M106 237L107 238L106 237z"/>
<path style="fill:#bdebe4; stroke:none;" d="M278 237L279 238L278 237z"/>
<path style="fill:#add7ef; stroke:none;" d="M409 237L410 238L409 237z"/>
<path style="fill:#ccfddb; stroke:none;" d="M108 238L109 239L108 238z"/>
<path style="fill:#bdebe4; stroke:none;" d="M275 238L276 239L275 238M321 238L322 239L321 238M342 238L343 239L342 238z"/>
<path style="fill:#ccfddb; stroke:none;" d="M84 239L85 240L84 239M105 239L106 240L105 239M277 239L278 240L277 239z"/>
<path style="fill:#bdebe4; stroke:none;" d="M320 239L321 240L320 239M323 239L324 240L323 239z"/>
<path style="fill:#add7ef; stroke:none;" d="M412.333 239.667L412.667 240.333L412.333 239.667z"/>
<path style="fill:#ccfddb; stroke:none;" d="M107 240L108 241L107 240z"/>
<path style="fill:#bdebe4; stroke:none;" d="M274 240L275 241L274 240z"/>
<path style="fill:#ccfddb; stroke:none;" d="M322 240L323 241L322 240z"/>
<path style="fill:#add7ef; stroke:none;" d="M323 240L322 242L324 242L323 240z"/>
<path style="fill:#bdebe4; stroke:none;" d="M343 240L344 241L343 240z"/>
<path style="fill:#ccfddb; stroke:none;" d="M84 241L85 242L84 241M104 241L105 242L104 241M274 241L275 242L274 241z"/>
<path style="fill:#bdebe4; stroke:none;" d="M324 241L321 242L321 243L324 241M410 241L410 250L411 250L410 241M412 241L412 250L413 250L412 241z"/>
<path style="fill:#ccfddb; stroke:none;" d="M106 242L107 243L106 242z"/>
<path style="fill:#bdebe4; stroke:none;" d="M277 242L277 243L318 243C307.25 238.489 288.696 242 277 242z"/>
<path style="fill:#ccfddb; stroke:none;" d="M318 242L319 243L318 242M84 243L85 244L84 243M103 243L104 244L103 243z"/>
<path style="fill:#bdebe4; stroke:none;" d="M273 243L274 244L273 243z"/>
<path style="fill:#ccfddb; stroke:none;" d="M344 243L345 244L344 243M84 245L85 246L84 245M105 245L106 246L105 245z"/>
<path style="fill:#bdebe4; stroke:none;" d="M272 245L273 246L272 245M316 245L317 246L316 245z"/>
<path style="fill:#add7ef; stroke:none;" d="M222 500L353 500C348.554 463.662 352.667 424.301 352.667 387.667C352.667 355.047 348.501 319.277 353 287L325 287L325 284C343.058 283.998 336.652 271.035 331.799 259C330.192 255.013 328.139 245.625 322.935 245.207C316.868 244.719 312.961 254.808 310.319 259C300.894 273.954 291.423 289.019 280.575 303C269.783 316.909 257.541 329.659 244 340.919C238.448 345.536 226.761 350.536 223.028 356.39C221.089 359.431 222 364.562 222 368L222 396L222 500z"/>
<path style="fill:#bdebe4; stroke:none;" d="M345 245L346 246L345 245z"/>
<path style="fill:#ccfddb; stroke:none;" d="M102 246L103 247L102 246M274 246L275 247L274 246z"/>
<path style="fill:#bdebe4; stroke:none;" d="M318 246L319 247L318 246M326 246L327 247L326 246z"/>
<path style="fill:#ccfddb; stroke:none;" d="M84 247L85 248L84 247M104 247L105 248L104 247z"/>
<path style="fill:#bdebe4; stroke:none;" d="M346 247L347 248L346 247z"/>
<path style="fill:#ccfddb; stroke:none;" d="M101.333 248.667L101.667 249.333L101.333 248.667M271 248L272 249L271 248z"/>
<path style="fill:#bdebe4; stroke:none;" d="M314 248L315 249L314 248M327 248L328 249L327 248z"/>
<path style="fill:#ccfddb; stroke:none;" d="M84 249L85 250L84 249z"/>
<path style="fill:#bdebe4; stroke:none;" d="M273 249L274 250L273 249M316 249L317 250L316 249z"/>
<path style="fill:#ccfddb; stroke:none;" d="M103 250L104 251L103 250z"/>
<path style="fill:#bdebe4; stroke:none;" d="M270 250L271 251L270 250z"/>
<path style="fill:#ccfddb; stroke:none;" d="M313 250L314 251L313 250z"/>
<path style="fill:#bdebe4; stroke:none;" d="M347 250L348 251L347 250z"/>
<path style="fill:#add7ef; stroke:none;" d="M412.333 250.667L412.667 251.333L412.333 250.667z"/>
<path style="fill:#ccfddb; stroke:none;" d="M84 251L85 252L84 251z"/>
<path style="fill:#bdebe4; stroke:none;" d="M272 251L273 252L272 251M312 251L313 252L312 251M328 251L329 252L328 251z"/>
<path style="fill:#ccfddb; stroke:none;" d="M100 252L101 253L100 252z"/>
<path style="fill:#bdebe4; stroke:none;" d="M269 252L270 253L269 252M314 252L315 253L314 252M348 252L349 253L348 252z"/>
<path style="fill:#ccfddb; stroke:none;" d="M84 253L85 254L84 253M102 253L103 254L102 253M176 253L177 254L176 253M269 253L270 254L269 253M311 253L312 254L311 253z"/>
<path style="fill:#bdebe4; stroke:none;" d="M329 253L330 254L329 253z"/>
<path style="fill:#add7ef; stroke:none;" d="M409 253L410 254L409 253z"/>
<path style="fill:#ccfddb; stroke:none;" d="M195 254L196 255L195 254z"/>
<path style="fill:#bdebe4; stroke:none;" d="M271 254L272 255L271 254M310 254L311 255L310 254M409 254L410 255L409 254z"/>
<path style="fill:#ccfddb; stroke:none;" d="M84 255L85 256L84 255M99.3333 255.667L99.6667 256.333L99.3333 255.667z"/>
<path style="fill:#bdebe4; stroke:none;" d="M268 255L269 256L268 255M312 255L313 256L312 255z"/>
<path style="fill:#ccfddb; stroke:none;" d="M349 255L350 256L349 255z"/>
<path style="fill:#bdebe4; stroke:none;" d="M411 255L412 256L411 255z"/>
<path style="fill:#ccfddb; stroke:none;" d="M196 256L197 257L196 256z"/>
<path style="fill:#bdebe4; stroke:none;" d="M270 256L271 257L270 256M309 256L310 257L309 256z"/>
<path style="fill:#add7ef; stroke:none;" d="M411 256L412 257L411 256z"/>
<path style="fill:#ccfddb; stroke:none;" d="M84 257L85 258L84 257M101.333 257.667L101.667 258.333L101.333 257.667z"/>
<path style="fill:#bdebe4; stroke:none;" d="M267 257L268 258L267 257M308 257L309 258L308 257M311 257L312 258L311 257M350 257L351 258L350 257z"/>
<path style="fill:#add7ef; stroke:none;" d="M408 257L409 258L408 257z"/>
<path style="fill:#ccfddb; stroke:none;" d="M170 258L171 259L170 258M200 258L201 259L200 258M269 258L270 259L269 258M310 258L311 259L310 258z"/>
<path style="fill:#bdebe4; stroke:none;" d="M331 258L332 259L331 258M410 258L411 259L410 258z"/>
<path style="fill:#ccfddb; stroke:none;" d="M84 259L85 260L84 259M98.3333 259.667L98.6667 260.333L98.3333 259.667z"/>
<path style="fill:#bdebe4; stroke:none;" d="M269 259L270 260L269 259M307 259L308 260L307 259M351 259L352 260L351 259z"/>
<path style="fill:#add7ef; stroke:none;" d="M410 259L411 260L410 259z"/>
<path style="fill:#ccfddb; stroke:none;" d="M266 260L267 261L266 260z"/>
<path style="fill:#bdebe4; stroke:none;" d="M309 260L310 261L309 260z"/>
<path style="fill:#ccfddb; stroke:none;" d="M332 260L333 261L332 260z"/>
<path style="fill:#bdebe4; stroke:none;" d="M407 260L408 261L407 260z"/>
<path style="fill:#ccfddb; stroke:none;" d="M84 261L85 262L84 261M100 261L100 264L101 264L100 261z"/>
<path style="fill:#bdebe4; stroke:none;" d="M268 261L269 262L268 261z"/>
<path style="fill:#add7ef; stroke:none;" d="M352 261L355 264L352 261z"/>
<path style="fill:#bdebe4; stroke:none;" d="M409 261L410 262L409 261M265 262L266 263L265 262M305 262L306 263L305 262M352 262L353 263L352 262z"/>
<path style="fill:#add7ef; stroke:none;" d="M406 262L407 263L406 262M409 262L410 263L409 262z"/>
<path style="fill:#ccfddb; stroke:none;" d="M84 263L85 264L84 263z"/>
<path style="fill:#bdebe4; stroke:none;" d="M267 263L268 264L267 263M307 263L308 264L307 263M333 263L334 264L333 263M408 263L409 264L408 263z"/>
<path style="fill:#ccfddb; stroke:none;" d="M97 264L97 270L98 270L97 264z"/>
<path style="fill:#bdebe4; stroke:none;" d="M264 264L265 265L264 264M353 264L354 265L353 264z"/>
<path style="fill:#add7ef; stroke:none;" d="M405 264L406 265L405 264M408 264L409 265L408 264z"/>
<path style="fill:#ccfddb; stroke:none;" d="M84 265L85 266L84 265z"/>
<path style="fill:#bdebe4; stroke:none;" d="M303 265L304 266L303 265M306 265L307 266L306 265M334 265L335 266L334 265z"/>
<path style="fill:#add7ef; stroke:none;" d="M354.333 265.667L354.667 266.333L354.333 265.667z"/>
<path style="fill:#bdebe4; stroke:none;" d="M407 265L408 266L407 265M266 266L267 267L266 266z"/>
<path style="fill:#ccfddb; stroke:none;" d="M305 266L306 267L305 266z"/>
<path style="fill:#bdebe4; stroke:none;" d="M404 266L405 267L404 266z"/>
<path style="fill:#add7ef; stroke:none;" d="M407 266L408 267L407 266z"/>
<path style="fill:#ccfddb; stroke:none;" d="M84 267L85 268L84 267M99 267L99 272L100 272L99 267z"/>
<path style="fill:#bdebe4; stroke:none;" d="M263 267L264 268L263 267z"/>
<path style="fill:#ccfddb; stroke:none;" d="M302 267L303 268L302 267z"/>
<path style="fill:#bdebe4; stroke:none;" d="M406 267L407 268L406 267M265 268L266 269L265 268M301 268L302 269L301 268M304 268L305 269L304 268M335 268L336 269L335 268z"/>
<path style="fill:#add7ef; stroke:none;" d="M355 268L356 269L355 268z"/>
<path style="fill:#ccfddb; stroke:none;" d="M84 269L85 270L84 269z"/>
<path style="fill:#bdebe4; stroke:none;" d="M262 269L263 270L262 269M355 269L356 270L355 269M402 269L403 270L402 269z"/>
<path style="fill:#add7ef; stroke:none;" d="M405 269L406 270L405 269z"/>
<path style="fill:#ccfddb; stroke:none;" d="M264 270L265 271L264 270z"/>
<path style="fill:#bdebe4; stroke:none;" d="M300 270L301 271L300 270M336 270L337 271L336 270z"/>
<path style="fill:#add7ef; stroke:none;" d="M356 270L357 271L356 270M401 270L402 271L401 270z"/>
<path style="fill:#bdebe4; stroke:none;" d="M404 270L405 271L404 270z"/>
<path style="fill:#ccfddb; stroke:none;" d="M84 271L85 272L84 271z"/>
<path style="fill:#bdebe4; stroke:none;" d="M264 271L265 272L264 271M299 271L300 272L299 271M302 271L303 272L302 271M356 271L357 272L356 271z"/>
<path style="fill:#add7ef; stroke:none;" d="M400 271L401 272L400 271z"/>
<path style="fill:#ccfddb; stroke:none;" d="M403 271L404 272L403 271M261 272L262 273L261 272z"/>
<path style="fill:#add7ef; stroke:none;" d="M357 272L358 273L357 272z"/>
<path style="fill:#ccfddb; stroke:none;" d="M84 273L85 274L84 273z"/>
<path style="fill:#bdebe4; stroke:none;" d="M263 273L264 274L263 273M298 273L299 274L298 273z"/>
<path style="fill:#ccfddb; stroke:none;" d="M337 273L338 274L337 273z"/>
<path style="fill:#bdebe4; stroke:none;" d="M357 273L358 274L357 273z"/>
<path style="fill:#add7ef; stroke:none;" d="M402 273L403 274L402 273z"/>
<path style="fill:#bdebe4; stroke:none;" d="M260 274L261 275L260 274M300 274L301 275L300 274M337 274L338 275L337 274z"/>
<path style="fill:#add7ef; stroke:none;" d="M358 274L359 275L358 274M401 274L402 275L401 274z"/>
<path style="fill:#ccfddb; stroke:none;" d="M84 275L85 276L84 275M358 275L359 276L358 275z"/>
<path style="fill:#add7ef; stroke:none;" d="M400 275L401 276L400 275z"/>
<path style="fill:#bdebe4; stroke:none;" d="M296 276L297 277L296 276z"/>
<path style="fill:#add7ef; stroke:none;" d="M359 276L360 277L359 276M395 276L396 277L395 276M399 276L400 277L399 276z"/>
<path style="fill:#ccfddb; stroke:none;" d="M84 277L85 278L84 277z"/>
<path style="fill:#bdebe4; stroke:none;" d="M258 277L259 278L258 277M298 277L299 278L298 277z"/>
<path style="fill:#add7ef; stroke:none;" d="M360 277L361 278L360 277M394 277L395 278L394 277M398 277L399 278L398 277z"/>
<path style="fill:#bdebe4; stroke:none;" d="M257 278L258 279L257 278M393 278L394 279L393 278z"/>
<path style="fill:#ccfddb; stroke:none;" d="M84 279L85 280L84 279M99 279L99 287L100 287L99 279z"/>
<path style="fill:#bdebe4; stroke:none;" d="M256 279L257 280L256 279M294 279L295 280L294 279M297 279L298 280L297 279z"/>
<path style="fill:#ccfddb; stroke:none;" d="M361 279L362 280L361 279z"/>
<path style="fill:#add7ef; stroke:none;" d="M391 279L392 280L391 279z"/>
<path style="fill:#bdebe4; stroke:none;" d="M395 279L396 280L395 279M255 280L256 281L255 280z"/>
<path style="fill:#ccfddb; stroke:none;" d="M263 280L264 281L263 280z"/>
<path style="fill:#bdebe4; stroke:none;" d="M293 280L294 281L293 280M296 280L297 281L296 280M337 280L338 281L337 280z"/>
<path style="fill:#ccfddb; stroke:none;" d="M362 280L363 281L362 280z"/>
<path style="fill:#add7ef; stroke:none;" d="M389 280L390 281L389 280M394 280L395 281L394 280z"/>
<path style="fill:#ccfddb; stroke:none;" d="M84 281L85 282L84 281z"/>
<path style="fill:#bdebe4; stroke:none;" d="M254 281L255 282L254 281M264 281L265 282L264 281z"/>
<path style="fill:#add7ef; stroke:none;" d="M364 281L365 282L364 281M387 281L388 282L387 281z"/>
<path style="fill:#bdebe4; stroke:none;" d="M388 281L389 282L388 281M392 281L393 282L392 281M252 282L253 283L252 282M265 282L266 283L265 282M292 282L293 283L292 282M295 282L296 283L295 282M365 282L366 283L365 282z"/>
<path style="fill:#add7ef; stroke:none;" d="M385 282L386 283L385 282z"/>
<path style="fill:#ccfddb; stroke:none;" d="M386 282L387 283L386 282z"/>
<path style="fill:#add7ef; stroke:none;" d="M391 282L392 283L391 282z"/>
<path style="fill:#ccfddb; stroke:none;" d="M84 283L85 284L84 283z"/>
<path style="fill:#bdebe4; stroke:none;" d="M250 283L251 284L250 283M267 283L268 284L267 283M294 283L295 284L294 283M367 283L368 284L367 283z"/>
<path style="fill:#add7ef; stroke:none;" d="M368 283L369 284L368 283M382 283L383 284L382 283z"/>
<path style="fill:#bdebe4; stroke:none;" d="M383 283L384 284L383 283M389 283L390 284L389 283M245 287L246 287L248 285C245.86 283.882 245.473 284.749 245 287M270 284L270 285L273 285L270 284M325 284L325 285L333 285L325 284z"/>
<path style="fill:#ccfddb; stroke:none;" d="M370 284L371 285L370 284z"/>
<path style="fill:#bdebe4; stroke:none;" d="M371 284L371 285L374 285L371 284z"/>
<path style="fill:#add7ef; stroke:none;" d="M374 284L375 285L374 284M378 284L379 285L378 284z"/>
<path style="fill:#bdebe4; stroke:none;" d="M379.667 284.333L380.333 284.667L379.667 284.333z"/>
<path style="fill:#add7ef; stroke:none;" d="M387 284L388 285L387 284z"/>
<path style="fill:#ccfddb; stroke:none;" d="M84 285L85 286L84 285M97 285L97 291L98 291L97 285z"/>
<path style="fill:#bdebe4; stroke:none;" d="M290 285L291 286L290 285M375 285L376 286L375 285M384 285L385 286L384 285z"/>
<path style="fill:#add7ef; stroke:none;" d="M385 285L386 286L385 285z"/>
<path style="fill:#bdebe4; stroke:none;" d="M289 286L290 287L289 286M292 286L293 287L292 286M381 286L382 287L381 286z"/>
<path style="fill:#add7ef; stroke:none;" d="M382 286L383 287L382 286z"/>
<path style="fill:#ccfddb; stroke:none;" d="M84 287L85 288L84 287z"/>
<path style="fill:#add7ef; stroke:none;" d="M354 287L355 288L354 287M360 287L361 288L360 287z"/>
<path style="fill:#bdebe4; stroke:none;" d="M361.667 287.333L362.333 287.667L361.667 287.333M375 287L375 288L378 288L375 287z"/>
<path style="fill:#add7ef; stroke:none;" d="M378 287L379 288L378 287z"/>
<path style="fill:#ccfddb; stroke:none;" d="M288 288L289 289L288 288z"/>
<path style="fill:#add7ef; stroke:none;" d="M353 288C357.419 324.123 353.333 363.249 353.333 399.667C353.333 431.856 357.44 467.148 353 499L354 499L354.667 447.667L354.667 340.333L354.667 303L353 288M367 288L367 289L372 289L367 288z"/>
<path style="fill:#ccfddb; stroke:none;" d="M84 289L85 290L84 289z"/>
<path style="fill:#bdebe4; stroke:none;" d="M287 289L288 290L287 289M290 289L291 290L290 289z"/>
<path style="fill:#ccfddb; stroke:none;" d="M84 291L85 292L84 291M100 291L100 294L101 294L100 291z"/>
<path style="fill:#bdebe4; stroke:none;" d="M285 292L286 293L285 292M288 292L289 293L288 292z"/>
<path style="fill:#ccfddb; stroke:none;" d="M84 293L85 294L84 293M287 293L288 294L287 293M98.3333 294.667L98.6667 295.333L98.3333 294.667M84 295L85 296L84 295M283 295L284 296L283 295M101.333 296.667L101.667 297.333L101.333 296.667z"/>
<path style="fill:#bdebe4; stroke:none;" d="M282 296L283 297L282 296M285 296L286 297L285 296z"/>
<path style="fill:#ccfddb; stroke:none;" d="M84 297L85 298L84 297M84 299L85 300L84 299M99 299L100 300L99 299M280 299L281 300L280 299z"/>
<path style="fill:#bdebe4; stroke:none;" d="M283 299L284 300L283 299z"/>
<path style="fill:#ccfddb; stroke:none;" d="M102.333 300.667L102.667 301.333L102.333 300.667z"/>
<path style="fill:#bdebe4; stroke:none;" d="M279 300L280 301L279 300M282 300L283 301L282 300z"/>
<path style="fill:#ccfddb; stroke:none;" d="M84 301L85 302L84 301z"/>
<path style="fill:#bdebe4; stroke:none;" d="M278 301L279 302L278 301z"/>
<path style="fill:#ccfddb; stroke:none;" d="M100.333 302.667L100.667 303.333L100.333 302.667M84 303L85 304L84 303z"/>
<path style="fill:#bdebe4; stroke:none;" d="M280 303L281 304L280 303z"/>
<path style="fill:#ccfddb; stroke:none;" d="M103 304L104 305L103 304z"/>
<path style="fill:#bdebe4; stroke:none;" d="M276 304L277 305L276 304M279 304L280 305L279 304z"/>
<path style="fill:#ccfddb; stroke:none;" d="M84 305L85 306L84 305M101.333 305.667L101.667 306.333L101.333 305.667z"/>
<path style="fill:#bdebe4; stroke:none;" d="M275 305L276 306L275 305z"/>
<path style="fill:#ccfddb; stroke:none;" d="M84 307L85 308L84 307M104 307L105 308L104 307M102 308L103 309L102 308z"/>
<path style="fill:#bdebe4; stroke:none;" d="M276 308L277 309L276 308z"/>
<path style="fill:#ccfddb; stroke:none;" d="M84 309L85 310L84 309M105 309L106 310L105 309z"/>
<path style="fill:#bdebe4; stroke:none;" d="M272 309L273 310L272 309M275 309L276 310L275 309M271 310L272 311L271 310z"/>
<path style="fill:#ccfddb; stroke:none;" d="M84 311L85 312L84 311M103 311L104 312L103 311M106.333 311.667L106.667 312.333L106.333 311.667z"/>
<path style="fill:#bdebe4; stroke:none;" d="M270 311L271 312L270 311z"/>
<path style="fill:#ccfddb; stroke:none;" d="M84 313L85 314L84 313M104 313L105 314L104 313z"/>
<path style="fill:#bdebe4; stroke:none;" d="M272 313L273 314L272 313z"/>
<path style="fill:#ccfddb; stroke:none;" d="M107 314L108 315L107 314z"/>
<path style="fill:#bdebe4; stroke:none;" d="M271 314L272 315L271 314z"/>
<path style="fill:#ccfddb; stroke:none;" d="M84 315L85 316L84 315M105 315L106 316L105 315z"/>
<path style="fill:#bdebe4; stroke:none;" d="M270 315L271 316L270 315z"/>
<path style="fill:#ccfddb; stroke:none;" d="M108 316L109 317L108 316M266 316L267 317L266 316M269 316L270 317L269 316M84 317L85 318L84 317M106 317L107 318L106 317z"/>
<path style="fill:#bdebe4; stroke:none;" d="M265 317L266 318L265 317z"/>
<path style="fill:#ccfddb; stroke:none;" d="M109 318L110 319L109 318z"/>
<path style="fill:#bdebe4; stroke:none;" d="M264 318L265 319L264 318z"/>
<path style="fill:#ccfddb; stroke:none;" d="M84 319L85 320L84 319M107 319L108 320L107 319z"/>
<path style="fill:#bdebe4; stroke:none;" d="M263 319L264 320L263 319M262 320L263 321L262 320z"/>
<path style="fill:#ccfddb; stroke:none;" d="M84 321L85 322L84 321M108 321L109 322L108 321M111 321L112 322L111 321z"/>
<path style="fill:#bdebe4; stroke:none;" d="M261 321L262 322L261 321M260 322L261 323L260 322z"/>
<path style="fill:#ccfddb; stroke:none;" d="M84 323L85 324L84 323M112 323L113 324L112 323z"/>
<path style="fill:#bdebe4; stroke:none;" d="M259 323L260 324L259 323z"/>
<path style="fill:#ccfddb; stroke:none;" d="M110 324L111 325L110 324M113 324L114 325L113 324z"/>
<path style="fill:#bdebe4; stroke:none;" d="M258 324L259 325L258 324z"/>
<path style="fill:#ccfddb; stroke:none;" d="M84 325L85 326L84 325z"/>
<path style="fill:#bdebe4; stroke:none;" d="M257 325L258 326L257 325z"/>
<path style="fill:#ccfddb; stroke:none;" d="M114 326L115 327L114 326z"/>
<path style="fill:#bdebe4; stroke:none;" d="M256 326L257 327L256 326M260 326L261 327L260 326z"/>
<path style="fill:#ccfddb; stroke:none;" d="M84 327L85 328L84 327M112 327L113 328L112 327M115 327L116 328L115 327z"/>
<path style="fill:#bdebe4; stroke:none;" d="M255 327L256 328L255 327M259 327L260 328L259 327M254 328L255 329L254 328z"/>
<path style="fill:#ccfddb; stroke:none;" d="M84 329L85 330L84 329z"/>
<path style="fill:#bdebe4; stroke:none;" d="M253 329L254 330L253 329z"/>
<path style="fill:#ccfddb; stroke:none;" d="M117 330L118 331L117 330z"/>
<path style="fill:#bdebe4; stroke:none;" d="M252 330L253 331L252 330z"/>
<path style="fill:#ccfddb; stroke:none;" d="M84 331L85 332L84 331M115 331L116 332L115 331M118 331L119 332L118 331z"/>
<path style="fill:#bdebe4; stroke:none;" d="M251 331L252 332L251 331z"/>
<path style="fill:#ccfddb; stroke:none;" d="M116 332L117 333L116 332M119 332L120 333L119 332M250 332L251 333L250 332M84 333L85 334L84 333M120 333L121 334L120 333M252 333L253 334L252 333z"/>
<path style="fill:#bdebe4; stroke:none;" d="M251 334L252 335L251 334z"/>
<path style="fill:#ccfddb; stroke:none;" d="M84 335L85 336L84 335z"/>
<path style="fill:#bdebe4; stroke:none;" d="M246 335L247 336L246 335M250 335L251 336L250 335M245 336L246 337L245 336M249 336L250 337L249 336z"/>
<path style="fill:#ccfddb; stroke:none;" d="M84 337L85 338L84 337z"/>
<path style="fill:#bdebe4; stroke:none;" d="M244 337L245 338L244 337M248 337L249 338L248 337z"/>
<path style="fill:#ccfddb; stroke:none;" d="M243 338L244 339L243 338M84 339L85 340L84 339M122 339L123 340L122 339z"/>
<path style="fill:#bdebe4; stroke:none;" d="M241 339L242 340L241 339z"/>
<path style="fill:#ccfddb; stroke:none;" d="M245 339L246 340L245 339M123 340L124 341L123 340z"/>
<path style="fill:#bdebe4; stroke:none;" d="M240 340L241 341L240 340M244 340L245 341L244 340z"/>
<path style="fill:#ccfddb; stroke:none;" d="M84 341L85 342L84 341M124 341L125 342L124 341M128 341L129 342L128 341z"/>
<path style="fill:#bdebe4; stroke:none;" d="M239 341L240 342L239 341M243 341L244 342L243 341z"/>
<path style="fill:#ccfddb; stroke:none;" d="M129 342L130 343L129 342z"/>
<path style="fill:#bdebe4; stroke:none;" d="M237 342L238 343L237 342M242 342L243 343L242 342z"/>
<path style="fill:#ccfddb; stroke:none;" d="M84 343L85 344L84 343M130 343L131 344L130 343z"/>
<path style="fill:#bdebe4; stroke:none;" d="M236 343L237 344L236 343z"/>
<path style="fill:#ccfddb; stroke:none;" d="M240 343L241 344L240 343M128 344L129 345L128 344M235 344L236 345L235 344z"/>
<path style="fill:#bdebe4; stroke:none;" d="M239 344L240 345L239 344z"/>
<path style="fill:#ccfddb; stroke:none;" d="M84 345L85 346L84 345M129 345L130 346L129 345z"/>
<path style="fill:#bdebe4; stroke:none;" d="M233 345L234 346L233 345M238 345L239 346L238 345z"/>
<path style="fill:#ccfddb; stroke:none;" d="M134 346L135 347L134 346M232 346L233 347L232 346z"/>
<path style="fill:#bdebe4; stroke:none;" d="M237 346L238 347L237 346z"/>
<path style="fill:#ccfddb; stroke:none;" d="M84 347L85 348L84 347z"/>
<path style="fill:#bdebe4; stroke:none;" d="M230 347L231 348L230 347z"/>
<path style="fill:#ccfddb; stroke:none;" d="M235 347L236 348L235 347M133 348L134 349L133 348M137 348L138 349L137 348M229 348L230 349L229 348z"/>
<path style="fill:#bdebe4; stroke:none;" d="M234 348L235 349L234 348z"/>
<path style="fill:#ccfddb; stroke:none;" d="M84 349L85 350L84 349z"/>
<path style="fill:#bdebe4; stroke:none;" d="M227 349L228 350L227 349M233 349L234 350L233 349z"/>
<path style="fill:#ccfddb; stroke:none;" d="M136 350L137 351L136 350M226 350L227 351L226 350z"/>
<path style="fill:#bdebe4; stroke:none;" d="M231 350L232 351L231 350z"/>
<path style="fill:#ccfddb; stroke:none;" d="M84 351L85 352L84 351M142 351L143 352L142 351z"/>
<path style="fill:#bdebe4; stroke:none;" d="M224 351L225 352L224 351z"/>
<path style="fill:#ccfddb; stroke:none;" d="M229 351L230 352L229 351z"/>
<path style="fill:#bdebe4; stroke:none;" d="M230 351L231 352L230 351z"/>
<path style="fill:#ccfddb; stroke:none;" d="M139 352L140 353L139 352M144 352L145 353L144 352M223 352L224 353L223 352z"/>
<path style="fill:#bdebe4; stroke:none;" d="M228 352L229 353L228 352z"/>
<path style="fill:#ccfddb; stroke:none;" d="M84 353L85 354L84 353M141 353L142 354L141 353M146 353L147 354L146 353M221 353L222 354L221 353z"/>
<path style="fill:#bdebe4; stroke:none;" d="M226 353L227 354L226 353z"/>
<path style="fill:#ccfddb; stroke:none;" d="M148 354L149 355L148 354M219 354L220 355L219 354z"/>
<path style="fill:#bdebe4; stroke:none;" d="M224 354L225 355L224 354z"/>
<path style="fill:#ccfddb; stroke:none;" d="M84 355L85 356L84 355M150 355L151 356L150 355M152 356L153 357L152 356M84 357L85 358L84 357M149 357L150 358L149 357M155 357L156 358L155 357M212 357L213 358L212 357z"/>
<path style="fill:#add7ef; stroke:none;" d="M220 357L220 500L221 500L221 400C221 387.794 224.707 368.218 220 357z"/>
<path style="fill:#ccfddb; stroke:none;" d="M151 358L152 359L151 358M158 358L159 359L158 358M209 358L210 359L209 358M215 358L216 359L215 358M84 359L85 360L84 359M154 359L155 360L154 359M161 359L162 360L161 359M157 360L158 361L157 360M166.667 360.333L167.333 360.667L166.667 360.333M201 360L202 361L201 360M209 360L210 361L209 360M84 361L85 362L84 361M161 361L162 362L161 361M172 361L173 362L172 361M194.667 361.333L195.333 361.667L194.667 361.333M206 361L207 362L206 361M164.667 362.333L165.333 362.667L164.667 362.333M182 362L182 363L186 363L182 362M202 362L203 363L202 362M84 363L85 364L84 363M170 363L171 364L170 363M196.667 363.333L197.333 363.667L196.667 363.333M84 365L85 366L84 365M84 367L85 368L84 367M84 369L85 370L84 369M84 371L85 372L84 371M84 373L85 374L84 373M84 375L85 376L84 375M84 377L85 378L84 377M84 379L85 380L84 379M84 381L85 382L84 381M84 383L85 384L84 383M84 385L85 386L84 385M84 387L85 388L84 387M84 389L85 390L84 389M84 391L85 392L84 391M84 393L85 394L84 393M84 395L85 396L84 395M84 397L85 398L84 397M84 399L85 400L84 399M84 401L85 402L84 401M84 403L85 404L84 403M84 405L85 406L84 405M84 407L85 408L84 407M84 409L85 410L84 409M84 411L85 412L84 411M84 413L85 414L84 413M84 415L85 416L84 415M84 417L85 418L84 417M84 419L85 420L84 419M84 421L85 422L84 421M84 423L85 424L84 423M84 425L85 426L84 425M84 427L85 428L84 427M84 429L85 430L84 429M84 431L85 432L84 431M84 433L85 434L84 433M84 435L85 436L84 435M84 437L85 438L84 437M84 439L85 440L84 439M84 441L85 442L84 441M84 443L85 444L84 443M84 445L85 446L84 445M84 447L85 448L84 447M84 449L85 450L84 449M84 451L85 452L84 451M84 453L85 454L84 453M84 455L85 456L84 455M84 457L85 458L84 457M84 459L85 460L84 459M84 461L85 462L84 461M84 463L85 464L84 463M84 465L85 466L84 465M84 467L85 468L84 467M84 469L85 470L84 469M84 471L85 472L84 471M84 473L85 474L84 473M84 475L85 476L84 475M84 477L85 478L84 477M84 479L85 480L84 479M84 481L85 482L84 481M84 483L85 484L84 483M84 485L85 486L84 485M84 487L85 488L84 487M84 489L85 490L84 489M84 491L85 492L84 491M84 493L85 494L84 493M84 495L85 496L84 495M84 497L85 498L84 497z"/>
<path style="fill:#bdebe4; stroke:none;" d="M81 499L82 500L81 499z"/>
<path style="fill:#ccfddb; stroke:none;" d="M84 499L85 500L84 499z"/>
<path style="fill:#add7ef; stroke:none;" d="M354 499L355 500L354 499z"/>
</svg>